<?xml version="1.0" standalone="no"?><!DOCTYPE svg PUBLIC "-//W3C//DTD SVG 1.1//EN" "http://www.w3.org/Graphics/SVG/1.1/DTD/svg11.dtd"><svg class="icon" width="200px" height="200.00px" viewBox="0 0 1024 1024" version="1.1" xmlns="http://www.w3.org/2000/svg"><path d="M520.665122 11.253549c21.496168 99.482265 41.070456 197.575888 63.810846 296.913734 1.366423 6.076694 2.066298 7.043189 8.542922 7.709737 15.830511 1.78857 36.637913-1.499733 56.767657-7.28759 13.342066-3.854868 15.286164-2.755064 12.51999 11.431295-11.842333 58.422918-20.518564 116.001542-24.91778 172.235961-0.155528 3.166102-0.155528 4.954672-4.421434 7.443118-57.056495 34.571614 22.595972 87.351094 30.716746 14.597398a10.042654 10.042654 0 0 1 3.854869-6.887661l125.933104-97.149348c9.931563-7.576427 11.997861-7.843046 15.71942 5.1102 4.554744 15.697202 9.776035 31.116675 17.7635 48.358046 3.721559 8.120774 5.943385 9.376106 14.197469 4.399216l134.898173-81.429928c28.517138-17.352462 32.372007-15.563892 13.497594 13.919741l-86.51791 134.764863a9.942672 9.942672 0 0 0 0.677657 11.709024c12.26448 14.597398 25.917602 25.762074 39.148577 33.071882 10.60922 5.787857 10.187073 7.987465 0.966494 15.830511l-121.400579 103.359351a9.876017 9.876017 0 0 1-10.042654 1.644152c-66.810311-26.306421-92.861223 65.732726-3.166103 85.851361 13.097665 2.888374 14.330778 4.410325 5.787857 15.71942-76.475255 100.448759-159.704862 129.654663-273.106867 88.184279-11.275768-4.121487-12.808828-3.166102-13.342065 8.542921-1.65526 33.760648 8.387394 68.476681 32.372006 104.303627 5.087982 7.576427 3.299412 10.198182-3.166102 12.953247a83.274043 83.274043 0 0 1-37.482207 7.309808c-8.276302-0.422147-9.931563-3.45494-12.26448-14.752926-7.443118-37.893245-10.198182-75.508761-7.987465-112.979858 0.677657-12.686627-1.388641-14.197469-13.242083-10.064873-118.767715 40.781618-219.049837 13.497594-295.391783-95.760705-7.998574-11.564605-6.754351-13.097665 6.476623-15.441692 90.517196-16.385968 68.198953-109.391609 0.399928-85.962453a9.642725 9.642725 0 0 1-10.064872-2.088516l-116.979145-108.158496c-8.94285-8.276302-9.231688-10.47591 1.65526-15.852729 13.497594-6.754351 27.550644-17.219152 40.359472-31.416622a9.953781 9.953781 0 0 0 1.255332-11.709023L33.46309 381.487545c-17.641299-30.183508-13.630903-31.705459 14.197469-13.364284l131.321033 86.951165c8.120774 5.36571 10.47591 4.121487 14.464088-3.721558a335.317998 335.317998 0 0 0 19.707597-47.680389c4.265906-12.808828 6.343314-12.39779 15.830512-4.399216l121.944926 102.237329c2.199608 1.777461 3.32163 4.265906 3.588249 7.020971 5.087982 73.020315 86.951165 23.562466 31.272203-13.230975-4.265906-2.755064-3.988178-4.554744-4.121487-7.709736-2.066298-56.367729-8.409612-114.23519-17.774609-173.058037-2.199608-14.330778-0.13331-15.430582 12.942137-11.031367 19.840907 6.609933 40.648309 10.764748 56.367729 9.664944 6.609933-0.422147 7.309808-1.255332 8.965068-7.309808 27.128497-99.482265 42.148042-198.153563 68.87661-297.4803 3.166102-11.731242 6.465514-11.464623 9.620507 2.877265zM498.624607 512.108703c-3.854868 128.699278 17.219152 210.817972 19.55207 2.755064 1.521951-127.721675-13.064338-217.161285-19.55207-2.755064z m172.102651 146.740506c-113.268696 95.060831-62.288895 79.508048 14.997326 17.352462 66.843639-53.579337 92.750131-108.014077-14.997326-17.352462z m-328.885812-5.921167c109.524919 100.159922 57.600842 80.874471-16.274876 16.385968-65.021741-56.756548-87.484404-111.324598 16.274876-16.385968z" fill="#2c2c2c" /></svg>