<?xml version="1.0" standalone="no"?><!DOCTYPE svg PUBLIC "-//W3C//DTD SVG 1.1//EN" "http://www.w3.org/Graphics/SVG/1.1/DTD/svg11.dtd"><svg class="icon" width="200px" height="200.00px" viewBox="0 0 1024 1024" version="1.1" xmlns="http://www.w3.org/2000/svg"><path d="M944.64 524.288c-1.536-1.536-3.584-2.56-6.144-2.56-25.6-2.048-50.688-4.608-76.288-5.12 23.04-19.456 44.544-40.96 63.488-64.512 22.528-28.16 47.104-59.904 48.128-97.28 0-6.656-5.12-10.24-10.24-10.24-1.024 0-1.536-0.512-2.56-0.512-38.912 0-77.312 1.536-116.224 3.584 1.536-19.456 1.024-38.912-4.096-58.368-1.024-3.584-3.072-5.632-6.144-6.656-2.048-1.536-4.608-2.048-7.68-1.536-40.96 7.168-78.848 23.04-115.712 40.448 18.944-38.4 27.648-82.432 23.552-124.416 0-2.56-1.024-4.608-2.56-6.144-1.536-2.56-4.096-4.096-7.68-4.096-33.792-2.048-67.072-1.024-100.352 1.024-2.048-66.048-32.256-129.024-83.968-171.008-2.56-2.048-5.12-2.56-7.168-2.56-2.56 0-5.12 0.512-7.168 2.56-51.2 42.496-81.408 104.96-83.968 171.008-33.28-2.048-67.072-3.072-100.352-1.024-3.584 0-6.144 2.048-7.68 4.096-1.536 1.536-2.56 3.584-2.56 6.144-4.096 41.984 4.608 86.016 23.552 124.416-37.376-17.408-75.264-33.792-115.712-40.448-3.072-0.512-5.632 0-7.68 1.536-2.56 1.024-5.12 3.072-6.144 6.656-5.12 19.456-5.632 38.4-4.096 58.368-38.912-2.048-77.312-3.584-116.224-3.584-1.024 0-2.048 0-2.56 0.512-5.12 0-10.24 3.072-10.24 10.24 1.536 37.376 25.6 69.12 48.128 97.28 18.944 23.552 40.448 45.056 63.488 64.512-25.6 0.512-50.688 3.072-76.288 5.12-2.56 0-4.608 1.024-6.144 2.56-4.096 2.56-6.656 7.68-3.072 12.8 0.512 1.536 1.536 3.072 3.072 4.096 36.864 48.128 76.8 102.912 136.704 119.808-14.336 10.752-27.648 23.552-40.448 35.328-22.016 19.456-43.52 39.424-64 60.416l-0.512 0.512c-5.632 3.584-7.68 13.312-0.512 18.432 58.88 39.936 130.048 51.712 200.192 54.272 38.912 1.536 77.824 2.048 116.736 0.512 18.944-0.512 40.448-1.536 58.368-8.192 0 63.488-8.704 127.488-57.344 170.496-10.24 9.216 4.608 23.552 14.848 14.848 53.76-48.128 62.464-117.76 62.464-186.368 18.944 7.68 40.96 8.704 60.928 9.216 38.912 1.024 78.336 1.024 116.736-1.024 66.048-3.584 132.608-16.384 188.416-53.76 7.168-5.12 5.12-14.848-0.512-18.432 0 0 0-0.512-0.512-0.512-20.992-20.48-41.984-40.96-64-60.416-13.312-11.776-26.624-24.064-40.448-35.328 59.904-16.896 99.84-71.168 136.704-119.808 1.536-1.024 2.56-2.56 3.072-4.096 3.072-5.12 1.024-10.24-3.584-12.8z m-160.768 119.808c-2.56 0-4.608 1.024-6.144 2.56-6.144 3.584-8.704 13.824-0.512 17.92 23.04 12.8 43.008 32.768 62.464 50.688 17.92 15.872 34.816 32.256 51.712 48.64-50.176 29.696-108.032 40.448-165.888 43.52-32.256 1.536-64 1.536-96.256 1.536-25.6 0-55.808 1.536-79.36-10.24-1.024-0.512-2.048-0.512-2.56-1.024 0-12.8-0.512-25.6-1.024-38.4-1.024-42.496-2.048-84.992-2.56-126.976 39.936 36.352 83.456 68.096 130.048 95.232 11.776 6.656 22.016-11.264 10.752-17.92-41.984-24.064-80.896-52.224-117.248-84.48 59.904-26.112 116.736-53.76 166.4-98.816 10.24-9.216-4.608-23.552-14.848-14.848-51.712 46.592-111.616 73.728-175.104 100.864-1.024-54.272-2.56-108.032-3.584-162.304-0.512-13.312-20.992-13.312-20.992 0 1.024 53.248 2.048 106.496 3.584 159.744-61.44-26.112-119.296-52.736-168.96-97.792-9.728-9.216-24.576 5.632-14.848 14.848 49.664 44.544 105.984 72.192 166.4 98.816-36.352 31.744-75.264 59.904-117.248 84.48-11.776 6.656-1.024 25.088 10.752 17.92 44.544-25.6 86.016-55.808 124.416-90.112 0.512 32.256 1.536 65.024 2.048 97.28 0.512 20.48 1.536 42.496 2.048 64.512-1.024 0-2.048 0.512-3.072 1.024-19.456 9.728-45.568 8.192-67.072 8.704-34.816 0.512-70.144 0.512-104.96-0.512-61.952-2.56-123.904-12.288-177.664-44.032 16.896-16.384 34.304-32.768 51.712-48.64 19.456-17.408 39.424-37.888 62.464-50.688 8.192-4.608 5.632-14.336-0.512-17.92-1.536-1.536-3.584-2.56-6.144-2.56-59.904-5.632-100.352-57.856-135.168-103.424 27.136-2.56 54.272-4.608 81.408-3.584 1.536 0 3.072 0 4.096-0.512 8.192 0 13.824-13.312 5.12-19.968C209.92 496.64 185.344 473.6 163.328 448c-19.456-23.04-44.544-51.712-50.176-82.944 38.912 0 77.824 1.536 116.736 4.096 1.536 0 3.072 0 4.096-0.512 4.608-0.512 8.704-3.584 8.192-9.728-2.048-18.432-3.072-36.864 0-55.296 45.568 9.728 87.552 30.208 129.536 49.664 8.192 4.096 16.384-3.584 15.872-10.24 0.512-2.048 0-4.096-1.536-6.656-24.576-37.888-37.376-83.968-35.328-129.024 33.792-1.536 67.584 0 100.864 2.048 6.656 0.512 9.728-4.608 10.24-9.728 0-1.024 0.512-1.536 0.512-2.56-0.512-61.44 25.088-118.272 70.656-159.232 45.056 40.448 71.168 97.792 70.656 159.232 0 1.024 0 2.048 0.512 2.56 0 5.12 3.584 9.728 10.24 9.728 33.792-2.048 67.584-3.584 100.864-2.048 2.048 45.056-10.752 91.136-35.328 129.024-1.536 2.56-2.048 4.608-1.536 6.656 0 6.656 7.68 14.336 15.872 10.24 41.984-19.456 83.968-40.448 129.536-49.664 3.584 18.432 2.56 36.864 0 55.296-0.512 6.144 3.584 9.216 8.192 9.728 1.024 0.512 2.56 0.512 4.096 0.512 38.912-2.56 77.824-3.584 116.736-4.096-5.632 31.232-30.208 59.904-50.176 82.944C880.128 473.6 855.04 496.64 827.904 517.12c-8.704 6.656-3.072 19.968 5.12 19.968 1.024 0.512 2.56 0.512 4.096 0.512 27.136-1.024 54.272 1.024 81.408 3.584-34.304 45.568-74.752 97.792-134.656 102.912z" fill="#2c2c2c" /></svg>